<svg xmlns="http://www.w3.org/2000/svg" xmlns:xlink="http://www.w3.org/1999/xlink" viewBox="0 0 200 200"><defs><style>.a{fill:none;}.b{isolation:isolate;}.c{fill:#00813b;}.d{fill:#004c23;}.e{fill:#006930;}.f{clip-path:url(#a);}.g{fill:#1c744a;}.h{fill:#1b7147;}.i{fill:#1a6d45;}.j{fill:#196a43;}.k{fill:#186640;}.l{fill:#17623e;}.m{fill:#165f3c;}.n{clip-path:url(#b);}.o{fill:#1c784c;}.p{clip-path:url(#c);}.q{fill:#941a4c;}.r{fill:#981b4f;}.s{fill:#9d1c51;}.t{fill:#8f194a;}.u{fill:#8a1847;}.v{fill:#851845;}.w{fill:#811742;}.x{fill:#7c1640;}.y{clip-path:url(#d);}.z{clip-path:url(#e);}.aa{fill:#269f64;}.ab{clip-path:url(#f);}.ac{clip-path:url(#g);}.ad{clip-path:url(#h);}.ae{fill:#1e8151;}.af{clip-path:url(#i);}.ag{clip-path:url(#j);}.ah{clip-path:url(#k);}.ai{clip-path:url(#l);}.aj{clip-path:url(#m);}.ak{clip-path:url(#n);}.al{clip-path:url(#o);}.am{clip-path:url(#p);}.an{clip-path:url(#q);}.ao{clip-path:url(#r);}.ap{clip-path:url(#s);}.aq{fill:#a91e57;}.ar{clip-path:url(#t);}.as{fill:#d0256b;}.at{clip-path:url(#u);}.au{clip-path:url(#v);}.av{clip-path:url(#w);}.aw{clip-path:url(#x);}.ax{fill:#165d3b;}.ay{clip-path:url(#y);}.az{clip-path:url(#z);}.ba{fill:#7a153f;}.bb{fill:#a81e57;}.bc{clip-path:url(#aa);}</style><clipPath id="a"><path class="a" d="M104.63,167.56l-22.8-12.4a9.81,9.81,0,0,0,3.49-3.61,9.32,9.32,0,0,0,1.26-4.66l22.79,12.4a9.42,9.42,0,0,1-1.25,4.66A9.89,9.89,0,0,1,104.63,167.56Z"/></clipPath><clipPath id="b"><path class="a" d="M99,169.41,76.19,157a14.69,14.69,0,0,0,5.64-1.85l22.8,12.4A14.75,14.75,0,0,1,99,169.41Z"/></clipPath><clipPath id="c"><path class="a" d="M96.81,164.09,74,151.7a3.66,3.66,0,0,0,2.3.32,3.84,3.84,0,0,0,2.39-1.11,2.84,2.84,0,0,0,.85-1.94,2.06,2.06,0,0,0-.8-1.65,2.43,2.43,0,0,0-.29-.19l22.79,12.4a2.43,2.43,0,0,1,.29.19,2,2,0,0,1,.8,1.64,2.83,2.83,0,0,1-.84,1.95,3.94,3.94,0,0,1-2.39,1.11A3.58,3.58,0,0,1,96.81,164.09Z"/></clipPath><clipPath id="d"><path class="a" d="M78.46,147.13c5.41,2.94,12.62,6.86,18,9.81-6.9-3.75-12.69-6.76-20-10.38A6.74,6.74,0,0,1,78.46,147.13Z"/></clipPath><clipPath id="e"><path class="a" d="M86.58,146.89a6.83,6.83,0,0,0-.93-3.61l22.79,12.39a6.71,6.71,0,0,1,.93,3.62Z"/></clipPath><clipPath id="f"><path class="a" d="M85.65,143.28a5.48,5.48,0,0,0-2.17-2l22.8,12.4a5.57,5.57,0,0,1,2.16,2h0L85.65,143.28Z"/></clipPath><clipPath id="g"><path class="a" d="M73.11,150.94l22.8,12.4a2.91,2.91,0,0,0,.9.75L74,151.7A3.09,3.09,0,0,1,73.11,150.94Z"/></clipPath><clipPath id="h"><path class="a" d="M76.5,146.56s8.53,4.16,20,10.38l4.77,2.59a10,10,0,0,0-3.41-.76L75,146.37C75.58,146.43,76.07,146.49,76.5,146.56Z"/></clipPath><clipPath id="i"><path class="a" d="M83,131.7l-.28-.17,22.79,12.4a2.61,2.61,0,0,1,.28.17c1.57,1,2.5,2.77,2.79,5.34L85.83,137C85.54,134.47,84.61,132.68,83,131.7Z"/></clipPath><clipPath id="j"><path class="a" d="M68.87,156.37c1.62.88,4.06,1.1,7.32.64L99,169.41c-3.27.46-5.71.24-7.33-.64Z"/></clipPath><clipPath id="k"><path class="a" d="M73.11,150.94a5.26,5.26,0,0,1-.9-2.64l20.13,10.95L95,160.7a5.17,5.17,0,0,0,.9,2.64l-22.8-12.4Z"/></clipPath><clipPath id="l"><path class="a" d="M77.59,135.93l22.8,12.4a2.11,2.11,0,0,1,.27.18,3.45,3.45,0,0,1,1.14,2.32L79,138.44a3.46,3.46,0,0,0-1.15-2.33A1.27,1.27,0,0,0,77.59,135.93Z"/></clipPath><clipPath id="m"><path class="a" d="M96.4,151.54l-22.79-12.4a6.57,6.57,0,0,0,2.26.48,26,26,0,0,1,6.8,1.27,7.62,7.62,0,0,1,.81.39l22.8,12.4a8.88,8.88,0,0,0-.82-.39A26,26,0,0,0,98.67,152,6.59,6.59,0,0,1,96.4,151.54Z"/></clipPath><clipPath id="n"><path class="a" d="M73,138.35l22.8,12.4a1.34,1.34,0,0,0,.47.68l.17.11-22.79-12.4-.17-.11A1.38,1.38,0,0,1,73,138.35Z"/></clipPath><clipPath id="o"><path class="a" d="M73,138.35a1.27,1.27,0,0,1,0-.34l22.79,12.4a1.27,1.27,0,0,0,.05.34Z"/></clipPath><clipPath id="p"><path class="a" d="M75,146.37h0l22.8,12.4h0A15.64,15.64,0,0,1,92,157.26l-22.8-12.4A15.74,15.74,0,0,0,75,146.37Z"/></clipPath><clipPath id="q"><path class="a" d="M75.46,135.67a3.4,3.4,0,0,1,2.13.26l22.8,12.4a3.43,3.43,0,0,0-2.13-.26,3.23,3.23,0,0,0-1.91.84l-22.79-12.4A3.2,3.2,0,0,1,75.46,135.67Z"/></clipPath><clipPath id="r"><path class="a" d="M72.92,138a2.12,2.12,0,0,1,.64-1.5l22.79,12.4a2.12,2.12,0,0,0-.64,1.5h0L72.92,138Z"/></clipPath><clipPath id="s"><path class="a" d="M82.76,131.53l22.79,12.4c-1.56-.84-3.74-1.07-6.56-.67l-22.8-12.4C79,130.46,81.2,130.69,82.76,131.53Z"/></clipPath><clipPath id="t"><path class="a" d="M91.66,168.77l-22.79-12.4a4.48,4.48,0,0,1-1-.68,8.77,8.77,0,0,1-2.59-5.95l22.8,12.4a8.68,8.68,0,0,0,2.59,6A4.41,4.41,0,0,0,91.66,168.77Z"/></clipPath><clipPath id="u"><path class="a" d="M92,157.26l-22.8-12.4a5.56,5.56,0,0,1-3-5.2,7.94,7.94,0,0,1,1.06-3.83,8.66,8.66,0,0,1,3.15-3.16,15,15,0,0,1,5.77-1.81L99,143.26a14.86,14.86,0,0,0-5.77,1.81,8.54,8.54,0,0,0-3.16,3.16,7.82,7.82,0,0,0-1,3.83,5.5,5.5,0,0,0,2,4.6A5.85,5.85,0,0,0,92,157.26Z"/></clipPath><clipPath id="v"><path class="a" d="M75.45,172.72l-22.79-12.4A10.45,10.45,0,0,0,58.17,158,9.16,9.16,0,0,0,61,153.74a24.4,24.4,0,0,0,.72-6.68l22.8,12.4a24.33,24.33,0,0,1-.73,6.68A9.14,9.14,0,0,1,81,170.38,10.5,10.5,0,0,1,75.45,172.72Z"/></clipPath><clipPath id="w"><path class="a" d="M73.81,166.78,51,154.38a1.81,1.81,0,0,0,1.13.13,2.28,2.28,0,0,0,1.79-1.23,7.4,7.4,0,0,0,.57-3.36l22.8,12.4a7.52,7.52,0,0,1-.58,3.36,2.29,2.29,0,0,1-1.79,1.23A1.77,1.77,0,0,1,73.81,166.78Z"/></clipPath><clipPath id="x"><path class="a" d="M51,154.38l-.06,0,20.14,11,2.66,1.45.06,0Z"/></clipPath><clipPath id="y"><path class="a" d="M47.16,160.05a11.29,11.29,0,0,0,5.5.27l22.79,12.4a11.3,11.3,0,0,1-5.5-.27,7.89,7.89,0,0,1-.72-.33l-22.79-12.4A5.88,5.88,0,0,0,47.16,160.05Z"/></clipPath><clipPath id="z"><path class="a" d="M73.75,166.75,51,154.35a2.28,2.28,0,0,1-.85-1.19,8.41,8.41,0,0,1-.27-2.45l22.8,12.4a8.4,8.4,0,0,0,.26,2.44A2.28,2.28,0,0,0,73.75,166.75Z"/></clipPath><clipPath id="aa"><path class="a" d="M69.23,172.12l-22.79-12.4a5.88,5.88,0,0,1-2.29-2.27,10.88,10.88,0,0,1-1.24-4.75L65.7,165.1a11.06,11.06,0,0,0,1.24,4.75A5.94,5.94,0,0,0,69.23,172.12Z"/></clipPath></defs><g class="b"><polygon class="c" points="157.22 88.06 157.17 116.96 109.44 123.67 109.5 94.76 157.22 88.06"/><polygon class="d" points="109.44 123.67 86.65 111.27 86.7 82.36 109.5 94.76 109.44 123.67"/><polygon class="e" points="109.5 94.76 86.7 82.36 134.43 75.66 157.22 88.06 109.5 94.76"/></g><g class="b"><polygon class="c" points="157.31 38.28 157.26 67.19 109.53 73.9 109.59 44.99 157.31 38.28"/><polygon class="d" points="109.53 73.9 86.74 61.5 86.79 32.59 109.59 44.99 109.53 73.9"/><polygon class="e" points="109.59 44.99 86.79 32.59 134.52 25.88 157.31 38.28 109.59 44.99"/></g><g class="b"><g class="b"><g class="f"><g class="b"><path class="g" d="M104.63,167.56l-22.8-12.4c.17-.1.33-.21.49-.32l22.79,12.4-.48.32"/><path class="h" d="M105.11,167.24l-22.79-12.4a10,10,0,0,0,1-.8l22.79,12.4a11.61,11.61,0,0,1-1,.8"/><path class="i" d="M106.13,166.44,83.34,154a8.3,8.3,0,0,0,.78-.79l22.79,12.4a8.3,8.3,0,0,1-.78.79"/><path class="j" d="M106.91,165.65l-22.79-12.4a9.28,9.28,0,0,0,.67-.85l22.79,12.4a9.28,9.28,0,0,1-.67.85"/><path class="k" d="M107.58,164.8,84.79,152.4a8.1,8.1,0,0,0,.53-.85l.11-.18,22.79,12.39c0,.07-.07.13-.1.19-.17.3-.35.58-.54.85"/><path class="l" d="M108.22,163.76,85.43,151.37a9.94,9.94,0,0,0,.58-1.3l22.8,12.4a11.43,11.43,0,0,1-.59,1.29"/><path class="m" d="M108.81,162.47,86,150.07a9.12,9.12,0,0,0,.57-3.18l22.79,12.4a9.34,9.34,0,0,1-.56,3.18"/></g></g></g><g class="b"><g class="n"><g class="b"><path class="o" d="M99,169.41,76.19,157a15.83,15.83,0,0,0,4.62-1.3l22.79,12.4a16.17,16.17,0,0,1-4.61,1.3"/><path class="g" d="M103.6,168.11l-22.79-12.4a9.87,9.87,0,0,0,1-.55l22.8,12.4a11.2,11.2,0,0,1-1,.55"/></g></g></g><g class="b"><g class="p"><g class="b"><path class="q" d="M96.81,164.09,74,151.7l.11.05,22.79,12.4-.1-.06"/><path class="r" d="M96.91,164.15l-22.79-12.4a2.78,2.78,0,0,0,.57.21l22.79,12.4a2.78,2.78,0,0,1-.57-.21"/><path class="s" d="M97.48,164.36,74.69,152a3.94,3.94,0,0,0,1.62.06,4.63,4.63,0,0,0,1.39-.39L100.49,164a4.65,4.65,0,0,1-1.38.39,4.37,4.37,0,0,1-1.63-.06"/><path class="r" d="M100.49,164,77.7,151.63a4.08,4.08,0,0,0,.5-.29L101,163.74a3.45,3.45,0,0,1-.5.29"/><path class="q" d="M101,163.74,78.2,151.34a3.92,3.92,0,0,0,.32-.25l22.79,12.4a3.92,3.92,0,0,1-.32.25"/><path class="t" d="M101.31,163.49l-22.79-12.4.18-.18.07-.08,22.8,12.4a.27.27,0,0,0-.07.08l-.19.18"/><path class="u" d="M101.57,163.23l-22.8-12.4a2.5,2.5,0,0,0,.26-.33l22.8,12.4-.26.33"/><path class="v" d="M101.83,162.9,79,150.5a2.8,2.8,0,0,0,.2-.32l22.8,12.4c-.06.11-.13.21-.2.32"/><path class="w" d="M102,162.58l-22.8-12.4a2.83,2.83,0,0,0,.16-.36l22.8,12.4c0,.12-.1.24-.16.36"/><path class="x" d="M102.19,162.22l-22.8-12.4a2.46,2.46,0,0,0,.16-.85,2.06,2.06,0,0,0-.8-1.65,2.43,2.43,0,0,0-.29-.19l22.79,12.4a2.43,2.43,0,0,1,.29.19,2,2,0,0,1,.8,1.64,2.51,2.51,0,0,1-.15.86"/></g></g></g><g class="b"><g class="y"><g class="b"><path class="o" d="M94.44,158.19,71.65,145.8a23.38,23.38,0,0,0,3.39.57,16.68,16.68,0,0,1,2.4.39l22.79,12.4a16.51,16.51,0,0,0-2.39-.39,22,22,0,0,1-3.4-.58"/><path class="g" d="M100.23,159.16l-22.79-12.4a4.43,4.43,0,0,1,.92.32l22.8,12.4a4.54,4.54,0,0,0-.93-.32"/><path class="h" d="M101.16,159.48l-22.8-12.4.1,0,22.79,12.4-.09-.05"/></g></g></g><g class="b"><g class="z"><g class="b"><path class="m" d="M109.37,159.29l-22.79-12.4a6.83,6.83,0,0,0-.93-3.61,5.48,5.48,0,0,0-2.17-2l22.8,12.4a5.57,5.57,0,0,1,2.16,2,6.71,6.71,0,0,1,.93,3.62"/></g></g></g><path class="aa" d="M104.63,167.56a9.89,9.89,0,0,0,3.49-3.61,9.42,9.42,0,0,0,1.25-4.66V168L99,169.41A14.75,14.75,0,0,0,104.63,167.56Z"/><g class="b"><g class="ab"><g class="b"><path class="m" d="M109.37,159.29l-22.79-12.4a6.83,6.83,0,0,0-.93-3.61,5.48,5.48,0,0,0-2.17-2l22.8,12.4a5.57,5.57,0,0,1,2.16,2,6.71,6.71,0,0,1,.93,3.62"/></g></g></g><g class="b"><g class="ac"><g class="b"><path class="m" d="M96.81,164.09,74,151.7a3.09,3.09,0,0,1-.9-.76,5.26,5.26,0,0,1-.9-2.64L95,160.7a5.17,5.17,0,0,0,.9,2.64,2.91,2.91,0,0,0,.9.75"/></g></g></g><g class="b"><g class="ad"><g class="b"><path class="o" d="M94.44,158.19,71.65,145.8a23.38,23.38,0,0,0,3.39.57,16.68,16.68,0,0,1,2.4.39l22.79,12.4a16.51,16.51,0,0,0-2.39-.39,22,22,0,0,1-3.4-.58"/><path class="g" d="M100.23,159.16l-22.79-12.4a4.43,4.43,0,0,1,.92.32l22.8,12.4a4.54,4.54,0,0,0-.93-.32"/><path class="h" d="M101.16,159.48l-22.8-12.4.1,0,22.79,12.4-.09-.05"/></g></g></g><polygon class="ae" points="101.8 150.84 79.01 138.44 85.83 137.04 108.63 149.44 101.8 150.84"/><g class="b"><g class="af"><g class="b"><path class="m" d="M108.62,149.44,85.83,137c-.29-2.57-1.22-4.36-2.79-5.34l-.28-.17,22.79,12.4a2.61,2.61,0,0,1,.28.17c1.57,1,2.5,2.77,2.79,5.34"/></g></g></g><g class="b"><g class="ag"><g class="b"><path class="h" d="M91.66,168.77l-22.79-12.4.2.11,22.79,12.39-.2-.1"/><path class="g" d="M91.86,168.87,69.07,156.48a6.67,6.67,0,0,0,1.24.45l22.79,12.4a6.25,6.25,0,0,1-1.24-.46"/><path class="o" d="M93.1,169.33l-22.79-12.4a15.47,15.47,0,0,0,5.88.08L99,169.41a15.52,15.52,0,0,1-5.89-.08"/></g></g></g><g class="b"><g class="ah"><g class="b"><path class="m" d="M96.81,164.09,74,151.7a3.09,3.09,0,0,1-.9-.76,5.26,5.26,0,0,1-.9-2.64L95,160.7a5.17,5.17,0,0,0,.9,2.64,2.91,2.91,0,0,0,.9.75"/></g></g></g><g class="b"><g class="ai"><g class="b"><path class="x" d="M101.8,150.83,79,138.44a3.46,3.46,0,0,0-1.15-2.33,1.27,1.27,0,0,0-.27-.18l22.8,12.4a2.11,2.11,0,0,1,.27.18,3.45,3.45,0,0,1,1.14,2.32"/></g></g></g><g class="b"><g class="aj"><g class="b"><path class="q" d="M96.4,151.54l-22.79-12.4.06,0,22.79,12.4-.06,0"/><path class="r" d="M96.46,151.57l-22.79-12.4a3.23,3.23,0,0,0,.56.2L97,151.77a3.56,3.56,0,0,1-.56-.2"/><path class="s" d="M97,151.77l-22.79-12.4a11.29,11.29,0,0,0,1.64.25,35.71,35.71,0,0,1,5.45.84l22.79,12.4a35.55,35.55,0,0,0-5.44-.84,11.46,11.46,0,0,1-1.65-.25"/><path class="r" d="M104.11,152.86l-22.79-12.4a10.83,10.83,0,0,1,1.35.43l.53.24,22.8,12.4-.54-.24a10.83,10.83,0,0,0-1.35-.43"/><path class="q" d="M106,153.53l-22.8-12.4.28.15,22.8,12.4-.28-.15"/></g></g></g><g class="b"><g class="ak"><g class="b"><path class="m" d="M96.4,151.54l-22.79-12.4-.17-.11a1.23,1.23,0,0,1-.52-1,2.1,2.1,0,0,1,.12-.7l22.8,12.4a1.89,1.89,0,0,0-.13.7,1.26,1.26,0,0,0,.52,1l.17.11"/></g></g></g><g class="b"><g class="al"><g class="b"><path class="m" d="M96.4,151.54l-22.79-12.4-.17-.11a1.23,1.23,0,0,1-.52-1,2.1,2.1,0,0,1,.12-.7l22.8,12.4a1.89,1.89,0,0,0-.13.7,1.26,1.26,0,0,0,.52,1l.17.11"/></g></g></g><g class="b"><g class="am"><g class="b"><path class="h" d="M92,157.26l-22.8-12.4.29.15,22.79,12.4-.28-.15"/><path class="g" d="M92.25,157.41,69.46,145a11.33,11.33,0,0,0,2.19.79l22.79,12.39a10.94,10.94,0,0,1-2.19-.78"/><path class="o" d="M94.44,158.19,71.65,145.8a23.38,23.38,0,0,0,3.39.57,16.68,16.68,0,0,1,2.4.39l22.79,12.4a16.51,16.51,0,0,0-2.39-.39,22,22,0,0,1-3.4-.58"/></g></g></g><g class="b"><g class="an"><g class="b"><path class="i" d="M96.35,148.91l-22.79-12.4.1-.09,22.79,12.4-.1.09"/><path class="h" d="M96.45,148.82l-22.79-12.4a2.11,2.11,0,0,1,.23-.19l22.8,12.4a1.55,1.55,0,0,0-.24.19"/><path class="g" d="M96.69,148.63l-22.8-12.4a2.46,2.46,0,0,1,.39-.22l22.8,12.4a2.46,2.46,0,0,0-.39.22"/><path class="o" d="M97.08,148.41,74.28,136a4.31,4.31,0,0,1,1.18-.34,4.13,4.13,0,0,1,1.59.05l22.79,12.4a4.52,4.52,0,0,0-2.76.29"/><path class="g" d="M99.84,148.12l-22.79-12.4a2.09,2.09,0,0,1,.46.17l22.8,12.4a2.38,2.38,0,0,0-.47-.17"/><path class="h" d="M100.31,148.29l-22.8-12.4.08,0,22.8,12.4-.08,0"/></g></g></g><g class="b"><g class="ao"><g class="b"><path class="m" d="M96.4,151.54l-22.79-12.4-.17-.11a1.23,1.23,0,0,1-.52-1,2.1,2.1,0,0,1,.12-.7l22.8,12.4a1.89,1.89,0,0,0-.13.7,1.26,1.26,0,0,0,.52,1l.17.11"/><path class="l" d="M95.84,149.71,73,137.31l.12-.26L96,149.45a1.23,1.23,0,0,0-.12.26"/><path class="k" d="M96,149.45l-22.8-12.4a1.76,1.76,0,0,1,.14-.23l22.8,12.4a1.76,1.76,0,0,0-.14.23"/><path class="j" d="M96.1,149.22l-22.8-12.4a2.11,2.11,0,0,1,.19-.23L96.28,149a1.3,1.3,0,0,0-.18.23"/><path class="i" d="M96.28,149l-22.79-12.4.07-.08,22.79,12.4-.07.08"/></g></g></g><g class="b"><g class="ap"><g class="b"><path class="s" d="M99,143.26l-22.8-12.4a13.27,13.27,0,0,1,5.1.11l22.8,12.4a13.28,13.28,0,0,0-5.1-.11"/><path class="r" d="M104.09,143.37,81.29,131a5.86,5.86,0,0,1,1.26.46l22.79,12.4a6,6,0,0,0-1.25-.46"/><path class="q" d="M105.34,143.83l-22.79-12.4.21.1,22.79,12.4-.21-.1"/></g></g></g><polygon class="aq" points="88.12 162.14 65.32 149.74 72.21 148.3 95 160.7 88.12 162.14"/><g class="b"><g class="ar"><g class="b"><path class="x" d="M91.66,168.77l-22.79-12.4a4.48,4.48,0,0,1-1-.68,8.77,8.77,0,0,1-2.59-5.95l22.8,12.4a8.68,8.68,0,0,0,2.59,6,4.41,4.41,0,0,0,1,.68"/></g></g></g><path class="as" d="M99,143.26q4.49-.63,6.84.84c1.57,1,2.5,2.77,2.79,5.34l-6.82,1.39a3.45,3.45,0,0,0-1.14-2.32,3.15,3.15,0,0,0-2.4-.44,3.23,3.23,0,0,0-1.91.84,2.12,2.12,0,0,0-.64,1.5,1.26,1.26,0,0,0,.52,1,5.28,5.28,0,0,0,2.44.59,26,26,0,0,1,6.79,1.27,6,6,0,0,1,3,2.38,6.8,6.8,0,0,1,.94,3.62,9.53,9.53,0,0,1-1.26,4.66,9.89,9.89,0,0,1-3.49,3.61A14.75,14.75,0,0,1,99,169.41q-6,.84-8.28-1.32a8.68,8.68,0,0,1-2.59-6L95,160.7a5.17,5.17,0,0,0,.9,2.64,3.25,3.25,0,0,0,3.2,1.08,3.94,3.94,0,0,0,2.39-1.11,2.83,2.83,0,0,0,.84-1.95,2,2,0,0,0-.8-1.64,7.83,7.83,0,0,0-3.7-.95c-3.18-.32-5.44-1-6.79-2.11a5.5,5.5,0,0,1-2-4.6,7.82,7.82,0,0,1,1-3.83,8.54,8.54,0,0,1,3.16-3.16A14.86,14.86,0,0,1,99,143.26Z"/><g class="b"><g class="at"><g class="b"><path class="x" d="M92,157.26l-22.8-12.4a5.56,5.56,0,0,1-3-5.2,7.66,7.66,0,0,1,.47-2.56l22.8,12.4a7.42,7.42,0,0,0-.47,2.56,5.5,5.5,0,0,0,2,4.6,5.85,5.85,0,0,0,.92.6"/><path class="w" d="M89.48,149.5l-22.8-12.4A10.51,10.51,0,0,1,67.2,136L90,148.35a8.33,8.33,0,0,0-.52,1.15"/><path class="v" d="M90,148.35,67.2,136a.75.75,0,0,0,.07-.12,7.57,7.57,0,0,1,.42-.67l22.8,12.4a5.87,5.87,0,0,0-.43.67l-.06.12"/><path class="u" d="M90.49,147.56l-22.8-12.4a7.36,7.36,0,0,1,.55-.7L91,146.86a7.36,7.36,0,0,0-.55.7"/><path class="t" d="M91,146.86l-22.8-12.4a7.49,7.49,0,0,1,.69-.69l22.79,12.4a7.36,7.36,0,0,0-.68.69"/><path class="q" d="M91.72,146.17l-22.79-12.4a8.23,8.23,0,0,1,1-.76l22.79,12.4a10.34,10.34,0,0,0-1,.76"/><path class="r" d="M92.68,145.41,69.89,133c.17-.12.35-.23.53-.34a9.51,9.51,0,0,1,.9-.48l22.79,12.39a6.83,6.83,0,0,0-.89.49l-.54.34"/><path class="s" d="M94.11,144.58,71.32,132.19a17.14,17.14,0,0,1,4.87-1.33L99,143.26a17.58,17.58,0,0,0-4.88,1.32"/></g></g></g><g class="b"><g class="au"><g class="b"><path class="o" d="M75.45,172.72l-22.79-12.4a12.12,12.12,0,0,0,3.41-1l22.8,12.39a11.87,11.87,0,0,1-3.42,1"/><path class="g" d="M78.87,171.73l-22.8-12.39a9.73,9.73,0,0,0,1.34-.77L80.2,171a9.16,9.16,0,0,1-1.33.76"/><path class="h" d="M80.2,171l-22.79-12.4c.26-.19.52-.38.76-.59l.14-.13,22.79,12.4-.14.13a9,9,0,0,1-.76.59"/><path class="i" d="M81.1,170.25l-22.79-12.4a9.55,9.55,0,0,0,.9-.9L82,169.35a9.55,9.55,0,0,1-.9.9"/><path class="j" d="M82,169.35,59.21,157a8.6,8.6,0,0,0,.67-.85l22.79,12.4a8.6,8.6,0,0,1-.67.85"/><path class="k" d="M82.67,168.5,59.88,156.1a9,9,0,0,0,.54-.88l22.8,12.4c-.17.3-.35.59-.55.88"/><path class="l" d="M83.22,167.62l-22.8-12.4a7.51,7.51,0,0,0,.47-1l22.8,12.4a9.72,9.72,0,0,1-.47,1"/><path class="m" d="M83.69,166.58l-22.8-12.4c.06-.14.1-.29.15-.44a24.4,24.4,0,0,0,.72-6.68l22.8,12.4a24.33,24.33,0,0,1-.73,6.68c0,.15-.09.3-.14.44"/></g></g></g><g class="b"><g class="av"><g class="b"><path class="q" d="M73.81,166.78,51,154.38l0,0,22.8,12.4,0,0"/><path class="r" d="M73.85,166.8l-22.8-12.4a.85.85,0,0,0,.24.09l22.79,12.4a.79.79,0,0,1-.23-.09"/><path class="s" d="M74.08,166.89l-22.79-12.4a2.14,2.14,0,0,0,.85,0,2.77,2.77,0,0,0,.74-.21l22.8,12.4a3,3,0,0,1-.75.21,2.15,2.15,0,0,1-.85,0"/><path class="r" d="M75.68,166.7l-22.8-12.4.32-.18L76,166.51l-.31.19"/><path class="q" d="M76,166.51,53.2,154.12a1.81,1.81,0,0,0,.21-.18l22.8,12.4a1.84,1.84,0,0,1-.22.17"/><path class="t" d="M76.21,166.34l-22.8-12.4a1.62,1.62,0,0,0,.19-.18l22.79,12.4-.18.18"/><path class="u" d="M76.39,166.16,53.6,153.76l.17-.22,22.79,12.4a1.84,1.84,0,0,1-.17.22"/><path class="v" d="M76.56,165.94l-22.79-12.4.16-.26h0l22.79,12.4h0a2.26,2.26,0,0,1-.16.26"/><path class="w" d="M76.72,165.68l-22.79-12.4a2.2,2.2,0,0,0,.18-.41l22.79,12.4a2.2,2.2,0,0,1-.18.41"/><path class="x" d="M76.9,165.27l-22.79-12.4a8.82,8.82,0,0,0,.39-3l22.8,12.4a9.05,9.05,0,0,1-.4,3"/></g></g></g><g class="b"><g class="aw"><g class="b"><path class="m" d="M73.81,166.78,51,154.38l-.06,0,22.8,12.4.06,0"/></g></g></g><polygon class="ax" points="84.56 159.46 61.76 147.06 61.79 133.32 84.58 145.72 84.56 159.46"/><g class="b"><g class="ay"><g class="b"><path class="h" d="M69.23,172.12l-22.79-12.4.21.11,22.8,12.4-.22-.11"/><path class="g" d="M69.45,172.23l-22.8-12.4a4.61,4.61,0,0,0,.51.22,3.87,3.87,0,0,0,.63.2l22.79,12.4a4.21,4.21,0,0,1-.63-.2l-.5-.22"/><path class="o" d="M70.58,172.65l-22.79-12.4a12.68,12.68,0,0,0,4.87.07l22.79,12.4a12.69,12.69,0,0,1-4.87-.07"/></g></g></g><g class="b"><g class="az"><g class="b"><path class="m" d="M73.75,166.75,51,154.35a2.28,2.28,0,0,1-.85-1.19,8.41,8.41,0,0,1-.27-2.45l22.8,12.4a8.4,8.4,0,0,0,.26,2.44,2.28,2.28,0,0,0,.86,1.2"/></g></g></g><polygon class="ba" points="77.3 162.32 54.5 149.92 54.53 134.34 77.33 146.74 77.3 162.32"/><polygon class="bb" points="77.33 146.74 54.53 134.34 61.79 133.32 84.58 145.72 77.33 146.74"/><g class="b"><g class="bc"><g class="b"><path class="x" d="M69.23,172.12l-22.79-12.4a5.88,5.88,0,0,1-2.29-2.27,10.88,10.88,0,0,1-1.24-4.75L65.7,165.1a11.06,11.06,0,0,0,1.24,4.75,5.94,5.94,0,0,0,2.29,2.27"/></g></g></g><path class="as" d="M84.58,145.72l0,13.74a24.33,24.33,0,0,1-.73,6.68A9.14,9.14,0,0,1,81,170.38a10.5,10.5,0,0,1-5.51,2.34,11.3,11.3,0,0,1-5.5-.27,5.8,5.8,0,0,1-3-2.6,11.06,11.06,0,0,1-1.24-4.75l6.93-2a8.4,8.4,0,0,0,.26,2.44,2.28,2.28,0,0,0,.86,1.2,1.72,1.72,0,0,0,1.18.16,2.29,2.29,0,0,0,1.79-1.23,7.52,7.52,0,0,0,.58-3.36l0-15.58Z"/><polygon class="aq" points="65.7 165.1 42.91 152.7 49.83 150.71 72.63 163.11 65.7 165.1"/><polygon class="ax" points="65.48 174.12 42.69 161.72 42.91 38.76 65.71 51.16 65.48 174.12"/><path class="aa" d="M65.71,51.16,109.59,45l-.06,28.91,0,20.86,0,28.91-.07,35.62a6.71,6.71,0,0,0-.93-3.62,6,6,0,0,0-3-2.38A26,26,0,0,0,98.67,152a5.28,5.28,0,0,1-2.44-.59,1.26,1.26,0,0,1-.52-1,2.12,2.12,0,0,1,.64-1.5,3.23,3.23,0,0,1,1.91-.84,3.15,3.15,0,0,1,2.4.44,3.45,3.45,0,0,1,1.14,2.32l6.82-1.39c-.29-2.57-1.22-4.36-2.79-5.34s-3.85-1.26-6.84-.84a14.86,14.86,0,0,0-5.77,1.81,8.54,8.54,0,0,0-3.16,3.16,7.82,7.82,0,0,0-1,3.83,5.5,5.5,0,0,0,2,4.6c1.35,1.08,3.61,1.79,6.79,2.11a7.83,7.83,0,0,1,3.7.95,2,2,0,0,1,.8,1.64,2.83,2.83,0,0,1-.84,1.95,3.94,3.94,0,0,1-2.39,1.11,3.25,3.25,0,0,1-3.2-1.08,5.17,5.17,0,0,1-.9-2.64l-6.89,1.44a8.68,8.68,0,0,0,2.59,6q2.3,2.16,8.28,1.32l-23.54,3.31A10.5,10.5,0,0,0,81,170.38a9.14,9.14,0,0,0,2.87-4.24,24.33,24.33,0,0,0,.73-6.68l0-13.74-7.26,1,0,15.58a7.52,7.52,0,0,1-.58,3.36,2.29,2.29,0,0,1-1.79,1.23,1.72,1.72,0,0,1-1.18-.16,2.28,2.28,0,0,1-.86-1.2,8.4,8.4,0,0,1-.26-2.44l-6.93,2a11.06,11.06,0,0,0,1.24,4.75,5.8,5.8,0,0,0,3,2.6,11.3,11.3,0,0,0,5.5.27l-10,1.4Z"/><polygon class="ae" points="65.71 51.16 42.91 38.76 86.79 32.59 109.59 44.99 65.71 51.16"/></g></svg>