<svg xmlns="http://www.w3.org/2000/svg" xmlns:xlink="http://www.w3.org/1999/xlink" width="24" height="24" viewBox="0 0 24 24"><defs><style>.a{fill:url(#a);}.b,.d{fill:#242428;}.c{fill:#393e5b;}.d{stroke:#242428;stroke-miterlimit:10;}.e{opacity:0.1;}.f{fill:#fff;}</style><linearGradient id="a" x1="0.85" y1="12" x2="23.15" y2="12" gradientUnits="userSpaceOnUse"><stop offset="0" stop-color="#4453e2"/><stop offset="1" stop-color="#727ee9"/></linearGradient></defs><path class="a" d="M7.51,22.5a2.05,2.05,0,0,1-1.8-1.07L1.1,13a2.06,2.06,0,0,1,0-2L5.71,2.57A2.05,2.05,0,0,1,7.51,1.5h9a2.05,2.05,0,0,1,1.8,1.07L22.9,11a2.06,2.06,0,0,1,0,2l-4.61,8.45a2.05,2.05,0,0,1-1.8,1.07Z" transform="translate(-0.35 -1)"/><path class="b" d="M16.49,2a1.55,1.55,0,0,1,1.36.81l4.61,8.45a1.55,1.55,0,0,1,0,1.48l-4.61,8.45a1.55,1.55,0,0,1-1.36.81h-9a1.55,1.55,0,0,1-1.36-.81L1.54,12.74a1.55,1.55,0,0,1,0-1.48L6.15,2.81A1.55,1.55,0,0,1,7.51,2h9m0-1h-9A2.53,2.53,0,0,0,5.28,2.33L.67,10.78a2.52,2.52,0,0,0,0,2.44l4.61,8.45A2.53,2.53,0,0,0,7.51,23h9a2.53,2.53,0,0,0,2.23-1.33l4.61-8.45a2.52,2.52,0,0,0,0-2.44L18.72,2.33A2.53,2.53,0,0,0,16.49,1Z" transform="translate(-0.35 -1)"/><path class="b" d="M5.61,11.5H8.82l-.5,1.87Zm.71-2.74,3.08.56-.31,1.15Z" transform="translate(-0.35 -1)"/><path class="b" d="M8.16,12,8,12.55,7.22,12h.94M4.77,8a.19.19,0,0,0-.08.36L9,11H4.61a.19.19,0,0,0-.11.35L8.39,14a.23.23,0,0,0,.11,0,.2.2,0,0,0,.19-.14L10,9.12a.19.19,0,0,0-.18-.24h0l-5-.9Z" transform="translate(-0.35 -1)"/><circle class="c" cx="12.42" cy="11" r="5"/><path class="b" d="M12.78,7.5A4.5,4.5,0,1,1,8.28,12a4.51,4.51,0,0,1,4.5-4.5m0-1a5.5,5.5,0,1,0,5.5,5.5,5.5,5.5,0,0,0-5.5-5.5Z" transform="translate(-0.35 -1)"/><circle class="d" cx="10.65" cy="9" r="0.5"/><path class="d" d="M6.72,11" transform="translate(-0.35 -1)"/><g class="e"><path class="f" d="M15.91,9c-.1.26-2.91-.78-2.82-1s.81-.24,1.58,0S16,8.76,15.91,9Z" transform="translate(-0.35 -1)"/></g><g class="e"><circle class="f" cx="10.23" cy="8.85" r="0.38"/></g></svg>