<svg xmlns="http://www.w3.org/2000/svg" viewBox="0 0 200 200"><defs><clipPath id="prefix__a"><path class="prefix__a" d="M104.63 167.56l-22.8-12.4a9.81 9.81 0 003.49-3.61 9.32 9.32 0 001.26-4.66l22.79 12.4a9.42 9.42 0 01-1.25 4.66 9.89 9.89 0 01-3.49 3.61z"/></clipPath><clipPath id="prefix__b"><path class="prefix__a" d="M99 169.41L76.19 157a14.69 14.69 0 005.64-1.85l22.8 12.4a14.75 14.75 0 01-5.63 1.86z"/></clipPath><clipPath id="prefix__c"><path class="prefix__a" d="M96.81 164.09L74 151.7a3.66 3.66 0 002.3.32 3.84 3.84 0 002.39-1.11 2.84 2.84 0 00.85-1.94 2.06 2.06 0 00-.8-1.65 2.43 2.43 0 00-.29-.19l22.79 12.4a2.43 2.43 0 01.29.19 2 2 0 01.8 1.64 2.83 2.83 0 01-.84 1.95 3.94 3.94 0 01-2.39 1.11 3.58 3.58 0 01-2.29-.33z"/></clipPath><clipPath id="prefix__d"><path class="prefix__a" d="M78.46 147.13c5.41 2.94 12.62 6.86 18 9.81-6.9-3.75-12.69-6.76-20-10.38a6.74 6.74 0 012 .57z"/></clipPath><clipPath id="prefix__e"><path class="prefix__a" d="M86.58 146.89a6.83 6.83 0 00-.93-3.61l22.79 12.39a6.71 6.71 0 01.93 3.62z"/></clipPath><clipPath id="prefix__f"><path class="prefix__a" d="M85.65 143.28a5.48 5.48 0 00-2.17-2l22.8 12.4a5.57 5.57 0 012.16 2l-22.79-12.4z"/></clipPath><clipPath id="prefix__g"><path class="prefix__a" d="M73.11 150.94l22.8 12.4a2.91 2.91 0 00.9.75L74 151.7a3.09 3.09 0 01-.89-.76z"/></clipPath><clipPath id="prefix__h"><path class="prefix__a" d="M76.5 146.56s8.53 4.16 20 10.38l4.77 2.59a10 10 0 00-3.41-.76L75 146.37c.58.06 1.07.12 1.5.19z"/></clipPath><clipPath id="prefix__i"><path class="prefix__a" d="M83 131.7l-.28-.17 22.79 12.4a2.61 2.61 0 01.28.17c1.57 1 2.5 2.77 2.79 5.34L85.83 137c-.29-2.53-1.22-4.32-2.83-5.3z"/></clipPath><clipPath id="prefix__j"><path class="prefix__a" d="M68.87 156.37c1.62.88 4.06 1.1 7.32.64L99 169.41c-3.27.46-5.71.24-7.33-.64z"/></clipPath><clipPath id="prefix__k"><path class="prefix__a" d="M73.11 150.94a5.26 5.26 0 01-.9-2.64l20.13 10.95L95 160.7a5.17 5.17 0 00.9 2.64l-22.8-12.4z"/></clipPath><clipPath id="prefix__l"><path class="prefix__a" d="M77.59 135.93l22.8 12.4a2.11 2.11 0 01.27.18 3.45 3.45 0 011.14 2.32L79 138.44a3.46 3.46 0 00-1.15-2.33 1.27 1.27 0 00-.26-.18z"/></clipPath><clipPath id="prefix__m"><path class="prefix__a" d="M96.4 151.54l-22.79-12.4a6.57 6.57 0 002.26.48 26 26 0 016.8 1.27 7.62 7.62 0 01.81.39l22.8 12.4a8.88 8.88 0 00-.82-.39 26 26 0 00-6.79-1.29 6.59 6.59 0 01-2.27-.46z"/></clipPath><clipPath id="prefix__n"><path class="prefix__a" d="M73 138.35l22.8 12.4a1.34 1.34 0 00.47.68l.17.11-22.79-12.4-.17-.11a1.38 1.38 0 01-.48-.68z"/></clipPath><clipPath id="prefix__o"><path class="prefix__a" d="M73 138.35a1.27 1.27 0 010-.34l22.79 12.4a1.27 1.27 0 00.05.34z"/></clipPath><clipPath id="prefix__p"><path class="prefix__a" d="M75 146.37l22.8 12.4a15.64 15.64 0 01-5.8-1.51l-22.8-12.4a15.74 15.74 0 005.8 1.51z"/></clipPath><clipPath id="prefix__q"><path class="prefix__a" d="M75.46 135.67a3.4 3.4 0 012.13.26l22.8 12.4a3.43 3.43 0 00-2.13-.26 3.23 3.23 0 00-1.91.84l-22.79-12.4a3.2 3.2 0 011.9-.84z"/></clipPath><clipPath id="prefix__r"><path class="prefix__a" d="M72.92 138a2.12 2.12 0 01.64-1.5l22.79 12.4a2.12 2.12 0 00-.64 1.5L72.92 138z"/></clipPath><clipPath id="prefix__s"><path class="prefix__a" d="M82.76 131.53l22.79 12.4c-1.56-.84-3.74-1.07-6.56-.67l-22.8-12.4c2.81-.4 5.01-.17 6.57.67z"/></clipPath><clipPath id="prefix__t"><path class="prefix__a" d="M91.66 168.77l-22.79-12.4a4.48 4.48 0 01-1-.68 8.77 8.77 0 01-2.59-5.95l22.8 12.4a8.68 8.68 0 002.59 6 4.41 4.41 0 00.99.63z"/></clipPath><clipPath id="prefix__u"><path class="prefix__a" d="M92 157.26l-22.8-12.4a5.56 5.56 0 01-3-5.2 7.94 7.94 0 011.06-3.83 8.66 8.66 0 013.15-3.16 15 15 0 015.77-1.81L99 143.26a14.86 14.86 0 00-5.77 1.81 8.54 8.54 0 00-3.16 3.16 7.82 7.82 0 00-1 3.83 5.5 5.5 0 002 4.6 5.85 5.85 0 00.93.6z"/></clipPath><clipPath id="prefix__v"><path class="prefix__a" d="M75.45 172.72l-22.79-12.4a10.45 10.45 0 005.51-2.32 9.16 9.16 0 002.83-4.26 24.4 24.4 0 00.72-6.68l22.8 12.4a24.33 24.33 0 01-.73 6.68 9.14 9.14 0 01-2.79 4.24 10.5 10.5 0 01-5.55 2.34z"/></clipPath><clipPath id="prefix__w"><path class="prefix__a" d="M73.81 166.78L51 154.38a1.81 1.81 0 001.13.13 2.28 2.28 0 001.79-1.23 7.4 7.4 0 00.57-3.36l22.8 12.4a7.52 7.52 0 01-.58 3.36 2.29 2.29 0 01-1.79 1.23 1.77 1.77 0 01-1.11-.13z"/></clipPath><clipPath id="prefix__x"><path class="prefix__a" d="M51 154.38h-.06l20.14 11 2.66 1.45h.06z"/></clipPath><clipPath id="prefix__y"><path class="prefix__a" d="M47.16 160.05a11.29 11.29 0 005.5.27l22.79 12.4a11.3 11.3 0 01-5.5-.27 7.89 7.89 0 01-.72-.33l-22.79-12.4a5.88 5.88 0 00.72.33z"/></clipPath><clipPath id="prefix__z"><path class="prefix__a" d="M73.75 166.75L51 154.35a2.28 2.28 0 01-.85-1.19 8.41 8.41 0 01-.27-2.45l22.8 12.4a8.4 8.4 0 00.26 2.44 2.28 2.28 0 00.81 1.2z"/></clipPath><clipPath id="prefix__aa"><path class="prefix__a" d="M69.23 172.12l-22.79-12.4a5.88 5.88 0 01-2.29-2.27 10.88 10.88 0 01-1.24-4.75l22.79 12.4a11.06 11.06 0 001.24 4.75 5.94 5.94 0 002.29 2.27z"/></clipPath><style>.prefix__a{fill:none}.prefix__b{isolation:isolate}.prefix__c{fill:#00813b}.prefix__d{fill:#004c23}.prefix__e{fill:#006930}.prefix__g{fill:#1c744a}.prefix__h{fill:#1b7147}.prefix__i{fill:#1a6d45}.prefix__j{fill:#196a43}.prefix__k{fill:#186640}.prefix__l{fill:#17623e}.prefix__m{fill:#165f3c}.prefix__o{fill:#1c784c}.prefix__q{fill:#941a4c}.prefix__r{fill:#981b4f}.prefix__s{fill:#9d1c51}.prefix__t{fill:#8f194a}.prefix__u{fill:#8a1847}.prefix__v{fill:#851845}.prefix__w{fill:#811742}.prefix__x{fill:#7c1640}.prefix__aa{fill:#269f64}.prefix__ae{fill:#1e8151}.prefix__aq{fill:#a91e57}.prefix__as{fill:#d0256b}.prefix__ax{fill:#165d3b}</style></defs><g class="prefix__b"><path class="prefix__c" d="M157.22 88.06l-.05 28.9-47.73 6.71.06-28.91 47.72-6.7z"/><path class="prefix__d" d="M109.44 123.67l-22.79-12.4.05-28.91 22.8 12.4-.06 28.91z"/><path class="prefix__e" d="M109.5 94.76l-22.8-12.4 47.73-6.7 22.79 12.4-47.72 6.7z"/></g><g class="prefix__b"><path class="prefix__c" d="M157.31 38.28l-.05 28.91-47.73 6.71.06-28.91 47.72-6.71z"/><path class="prefix__d" d="M109.53 73.9L86.74 61.5l.05-28.91 22.8 12.4-.06 28.91z"/><path class="prefix__e" d="M109.59 44.99l-22.8-12.4 47.73-6.71 22.79 12.4-47.72 6.71z"/></g><g class="prefix__b"><g class="prefix__b"><g class="prefix__b" clip-path="url(#prefix__a)"><path class="prefix__g" d="M104.63 167.56l-22.8-12.4c.17-.1.33-.21.49-.32l22.79 12.4-.48.32"/><path class="prefix__h" d="M105.11 167.24l-22.79-12.4a10 10 0 001-.8l22.79 12.4a11.61 11.61 0 01-1 .8"/><path class="prefix__i" d="M106.13 166.44L83.34 154a8.3 8.3 0 00.78-.79l22.79 12.4a8.3 8.3 0 01-.78.79"/><path class="prefix__j" d="M106.91 165.65l-22.79-12.4a9.28 9.28 0 00.67-.85l22.79 12.4a9.28 9.28 0 01-.67.85"/><path class="prefix__k" d="M107.58 164.8l-22.79-12.4a8.1 8.1 0 00.53-.85l.11-.18 22.79 12.39c0 .07-.07.13-.1.19-.17.3-.35.58-.54.85"/><path class="prefix__l" d="M108.22 163.76l-22.79-12.39a9.94 9.94 0 00.58-1.3l22.8 12.4a11.43 11.43 0 01-.59 1.29"/><path class="prefix__m" d="M108.81 162.47L86 150.07a9.12 9.12 0 00.57-3.18l22.79 12.4a9.34 9.34 0 01-.56 3.18"/></g></g><g class="prefix__b"><g class="prefix__b" clip-path="url(#prefix__b)"><path class="prefix__o" d="M99 169.41L76.19 157a15.83 15.83 0 004.62-1.3l22.79 12.4a16.17 16.17 0 01-4.61 1.3"/><path class="prefix__g" d="M103.6 168.11l-22.79-12.4a9.87 9.87 0 001-.55l22.8 12.4a11.2 11.2 0 01-1 .55"/></g></g><g class="prefix__b"><g class="prefix__b" clip-path="url(#prefix__c)"><path class="prefix__q" d="M96.81 164.09L74 151.7l.11.05 22.79 12.4-.1-.06"/><path class="prefix__r" d="M96.91 164.15l-22.79-12.4a2.78 2.78 0 00.57.21l22.79 12.4a2.78 2.78 0 01-.57-.21"/><path class="prefix__s" d="M97.48 164.36L74.69 152a3.94 3.94 0 001.62.06 4.63 4.63 0 001.39-.39L100.49 164a4.65 4.65 0 01-1.38.39 4.37 4.37 0 01-1.63-.06"/><path class="prefix__r" d="M100.49 164L77.7 151.63a4.08 4.08 0 00.5-.29l22.8 12.4a3.45 3.45 0 01-.5.29"/><path class="prefix__q" d="M101 163.74l-22.8-12.4a3.92 3.92 0 00.32-.25l22.79 12.4a3.92 3.92 0 01-.32.25"/><path class="prefix__t" d="M101.31 163.49l-22.79-12.4.18-.18.07-.08 22.8 12.4a.27.27 0 00-.07.08l-.19.18"/><path class="prefix__u" d="M101.57 163.23l-22.8-12.4a2.5 2.5 0 00.26-.33l22.8 12.4-.26.33"/><path class="prefix__v" d="M101.83 162.9L79 150.5a2.8 2.8 0 00.2-.32l22.8 12.4c-.06.11-.13.21-.2.32"/><path class="prefix__w" d="M102 162.58l-22.8-12.4a2.83 2.83 0 00.16-.36l22.8 12.4c0 .12-.1.24-.16.36"/><path class="prefix__x" d="M102.19 162.22l-22.8-12.4a2.46 2.46 0 00.16-.85 2.06 2.06 0 00-.8-1.65 2.43 2.43 0 00-.29-.19l22.79 12.4a2.43 2.43 0 01.29.19 2 2 0 01.8 1.64 2.51 2.51 0 01-.15.86"/></g></g><g class="prefix__b"><g class="prefix__b" clip-path="url(#prefix__d)"><path class="prefix__o" d="M94.44 158.19L71.65 145.8a23.38 23.38 0 003.39.57 16.68 16.68 0 012.4.39l22.79 12.4a16.51 16.51 0 00-2.39-.39 22 22 0 01-3.4-.58"/><path class="prefix__g" d="M100.23 159.16l-22.79-12.4a4.43 4.43 0 01.92.32l22.8 12.4a4.54 4.54 0 00-.93-.32"/><path class="prefix__h" d="M101.16 159.48l-22.8-12.4h.1l22.79 12.4-.09-.05"/></g></g><g class="prefix__b"><g class="prefix__b" clip-path="url(#prefix__e)"><path class="prefix__m" d="M109.37 159.29l-22.79-12.4a6.83 6.83 0 00-.93-3.61 5.48 5.48 0 00-2.17-2l22.8 12.4a5.57 5.57 0 012.16 2 6.71 6.71 0 01.93 3.62"/></g></g><path class="prefix__aa" d="M104.63 167.56a9.89 9.89 0 003.49-3.61 9.42 9.42 0 001.25-4.66V168L99 169.41a14.75 14.75 0 005.63-1.85z"/><g class="prefix__b"><g class="prefix__b" clip-path="url(#prefix__f)"><path class="prefix__m" d="M109.37 159.29l-22.79-12.4a6.83 6.83 0 00-.93-3.61 5.48 5.48 0 00-2.17-2l22.8 12.4a5.57 5.57 0 012.16 2 6.71 6.71 0 01.93 3.62"/></g></g><g class="prefix__b"><g class="prefix__b" clip-path="url(#prefix__g)"><path class="prefix__m" d="M96.81 164.09L74 151.7a3.09 3.09 0 01-.9-.76 5.26 5.26 0 01-.9-2.64L95 160.7a5.17 5.17 0 00.9 2.64 2.91 2.91 0 00.9.75"/></g></g><g class="prefix__b"><g class="prefix__b" clip-path="url(#prefix__h)"><path class="prefix__o" d="M94.44 158.19L71.65 145.8a23.38 23.38 0 003.39.57 16.68 16.68 0 012.4.39l22.79 12.4a16.51 16.51 0 00-2.39-.39 22 22 0 01-3.4-.58"/><path class="prefix__g" d="M100.23 159.16l-22.79-12.4a4.43 4.43 0 01.92.32l22.8 12.4a4.54 4.54 0 00-.93-.32"/><path class="prefix__h" d="M101.16 159.48l-22.8-12.4h.1l22.79 12.4-.09-.05"/></g></g><path class="prefix__ae" d="M101.8 150.84l-22.79-12.4 6.82-1.4 22.8 12.4-6.83 1.4z"/><g class="prefix__b"><g class="prefix__b" clip-path="url(#prefix__i)"><path class="prefix__m" d="M108.62 149.44L85.83 137c-.29-2.57-1.22-4.36-2.79-5.34l-.28-.17 22.79 12.4a2.61 2.61 0 01.28.17c1.57 1 2.5 2.77 2.79 5.34"/></g></g><g class="prefix__b"><g class="prefix__b" clip-path="url(#prefix__j)"><path class="prefix__h" d="M91.66 168.77l-22.79-12.4.2.11 22.79 12.39-.2-.1"/><path class="prefix__g" d="M91.86 168.87l-22.79-12.39a6.67 6.67 0 001.24.45l22.79 12.4a6.25 6.25 0 01-1.24-.46"/><path class="prefix__o" d="M93.1 169.33l-22.79-12.4a15.47 15.47 0 005.88.08L99 169.41a15.52 15.52 0 01-5.89-.08"/></g></g><g class="prefix__b"><g class="prefix__b" clip-path="url(#prefix__k)"><path class="prefix__m" d="M96.81 164.09L74 151.7a3.09 3.09 0 01-.9-.76 5.26 5.26 0 01-.9-2.64L95 160.7a5.17 5.17 0 00.9 2.64 2.91 2.91 0 00.9.75"/></g></g><g class="prefix__b"><g class="prefix__b" clip-path="url(#prefix__l)"><path class="prefix__x" d="M101.8 150.83L79 138.44a3.46 3.46 0 00-1.15-2.33 1.27 1.27 0 00-.27-.18l22.8 12.4a2.11 2.11 0 01.27.18 3.45 3.45 0 011.14 2.32"/></g></g><g class="prefix__b"><g class="prefix__b" clip-path="url(#prefix__m)"><path class="prefix__q" d="M96.4 151.54l-22.79-12.4h.06l22.79 12.4h-.06"/><path class="prefix__r" d="M96.46 151.57l-22.79-12.4a3.23 3.23 0 00.56.2L97 151.77a3.56 3.56 0 01-.56-.2"/><path class="prefix__s" d="M97 151.77l-22.79-12.4a11.29 11.29 0 001.64.25 35.71 35.71 0 015.45.84l22.79 12.4a35.55 35.55 0 00-5.44-.84 11.46 11.46 0 01-1.65-.25"/><path class="prefix__r" d="M104.11 152.86l-22.79-12.4a10.83 10.83 0 011.35.43l.53.24 22.8 12.4-.54-.24a10.83 10.83 0 00-1.35-.43"/><path class="prefix__q" d="M106 153.53l-22.8-12.4.28.15 22.8 12.4-.28-.15"/></g></g><g class="prefix__b"><g class="prefix__b" clip-path="url(#prefix__n)"><path class="prefix__m" d="M96.4 151.54l-22.79-12.4-.17-.11a1.23 1.23 0 01-.52-1 2.1 2.1 0 01.12-.7l22.8 12.4a1.89 1.89 0 00-.13.7 1.26 1.26 0 00.52 1l.17.11"/></g></g><g class="prefix__b"><g class="prefix__b" clip-path="url(#prefix__o)"><path class="prefix__m" d="M96.4 151.54l-22.79-12.4-.17-.11a1.23 1.23 0 01-.52-1 2.1 2.1 0 01.12-.7l22.8 12.4a1.89 1.89 0 00-.13.7 1.26 1.26 0 00.52 1l.17.11"/></g></g><g class="prefix__b"><g class="prefix__b" clip-path="url(#prefix__p)"><path class="prefix__h" d="M92 157.26l-22.8-12.4.29.15 22.79 12.4-.28-.15"/><path class="prefix__g" d="M92.25 157.41L69.46 145a11.33 11.33 0 002.19.79l22.79 12.39a10.94 10.94 0 01-2.19-.78"/><path class="prefix__o" d="M94.44 158.19L71.65 145.8a23.38 23.38 0 003.39.57 16.68 16.68 0 012.4.39l22.79 12.4a16.51 16.51 0 00-2.39-.39 22 22 0 01-3.4-.58"/></g></g><g class="prefix__b"><g class="prefix__b" clip-path="url(#prefix__q)"><path class="prefix__i" d="M96.35 148.91l-22.79-12.4.1-.09 22.79 12.4-.1.09"/><path class="prefix__h" d="M96.45 148.82l-22.79-12.4a2.11 2.11 0 01.23-.19l22.8 12.4a1.55 1.55 0 00-.24.19"/><path class="prefix__g" d="M96.69 148.63l-22.8-12.4a2.46 2.46 0 01.39-.22l22.8 12.4a2.46 2.46 0 00-.39.22"/><path class="prefix__o" d="M97.08 148.41L74.28 136a4.31 4.31 0 011.18-.34 4.13 4.13 0 011.59.05l22.79 12.4a4.52 4.52 0 00-2.76.29"/><path class="prefix__g" d="M99.84 148.12l-22.79-12.4a2.09 2.09 0 01.46.17l22.8 12.4a2.38 2.38 0 00-.47-.17"/><path class="prefix__h" d="M100.31 148.29l-22.8-12.4h.08l22.8 12.4h-.08"/></g></g><g class="prefix__b"><g class="prefix__b" clip-path="url(#prefix__r)"><path class="prefix__m" d="M96.4 151.54l-22.79-12.4-.17-.11a1.23 1.23 0 01-.52-1 2.1 2.1 0 01.12-.7l22.8 12.4a1.89 1.89 0 00-.13.7 1.26 1.26 0 00.52 1l.17.11"/><path class="prefix__l" d="M95.84 149.71L73 137.31l.12-.26L96 149.45a1.23 1.23 0 00-.12.26"/><path class="prefix__k" d="M96 149.45l-22.8-12.4a1.76 1.76 0 01.14-.23l22.8 12.4a1.76 1.76 0 00-.14.23"/><path class="prefix__j" d="M96.1 149.22l-22.8-12.4a2.11 2.11 0 01.19-.23L96.28 149a1.3 1.3 0 00-.18.23"/><path class="prefix__i" d="M96.28 149l-22.79-12.4.07-.08 22.79 12.4-.07.08"/></g></g><g class="prefix__b"><g class="prefix__b" clip-path="url(#prefix__s)"><path class="prefix__s" d="M99 143.26l-22.8-12.4a13.27 13.27 0 015.1.11l22.8 12.4a13.28 13.28 0 00-5.1-.11"/><path class="prefix__r" d="M104.09 143.37L81.29 131a5.86 5.86 0 011.26.46l22.79 12.4a6 6 0 00-1.25-.46"/><path class="prefix__q" d="M105.34 143.83l-22.79-12.4.21.1 22.79 12.4-.21-.1"/></g></g><path class="prefix__aq" d="M88.12 162.14l-22.8-12.4 6.89-1.44L95 160.7l-6.88 1.44z"/><g class="prefix__b"><g class="prefix__b" clip-path="url(#prefix__t)"><path class="prefix__x" d="M91.66 168.77l-22.79-12.4a4.48 4.48 0 01-1-.68 8.77 8.77 0 01-2.59-5.95l22.8 12.4a8.68 8.68 0 002.59 6 4.41 4.41 0 001 .68"/></g></g><path class="prefix__as" d="M99 143.26q4.49-.63 6.84.84c1.57 1 2.5 2.77 2.79 5.34l-6.82 1.39a3.45 3.45 0 00-1.14-2.32 3.15 3.15 0 00-2.4-.44 3.23 3.23 0 00-1.91.84 2.12 2.12 0 00-.64 1.5 1.26 1.26 0 00.52 1 5.28 5.28 0 002.44.59 26 26 0 016.79 1.27 6 6 0 013 2.38 6.8 6.8 0 01.94 3.62 9.53 9.53 0 01-1.26 4.66 9.89 9.89 0 01-3.49 3.61 14.75 14.75 0 01-5.66 1.87q-6 .84-8.28-1.32a8.68 8.68 0 01-2.59-6L95 160.7a5.17 5.17 0 00.9 2.64 3.25 3.25 0 003.2 1.08 3.94 3.94 0 002.39-1.11 2.83 2.83 0 00.84-1.95 2 2 0 00-.8-1.64 7.83 7.83 0 00-3.7-.95c-3.18-.32-5.44-1-6.79-2.11a5.5 5.5 0 01-2-4.6 7.82 7.82 0 011-3.83 8.54 8.54 0 013.16-3.16 14.86 14.86 0 015.8-1.81z"/><g class="prefix__b"><g class="prefix__b" clip-path="url(#prefix__u)"><path class="prefix__x" d="M92 157.26l-22.8-12.4a5.56 5.56 0 01-3-5.2 7.66 7.66 0 01.47-2.56l22.8 12.4a7.42 7.42 0 00-.47 2.56 5.5 5.5 0 002 4.6 5.85 5.85 0 00.92.6"/><path class="prefix__w" d="M89.48 149.5l-22.8-12.4a10.51 10.51 0 01.52-1.1L90 148.35a8.33 8.33 0 00-.52 1.15"/><path class="prefix__v" d="M90 148.35L67.2 136a.75.75 0 00.07-.12 7.57 7.57 0 01.42-.67l22.8 12.4a5.87 5.87 0 00-.43.67l-.06.12"/><path class="prefix__u" d="M90.49 147.56l-22.8-12.4a7.36 7.36 0 01.55-.7L91 146.86a7.36 7.36 0 00-.55.7"/><path class="prefix__t" d="M91 146.86l-22.8-12.4a7.49 7.49 0 01.69-.69l22.79 12.4a7.36 7.36 0 00-.68.69"/><path class="prefix__q" d="M91.72 146.17l-22.79-12.4a8.23 8.23 0 011-.76l22.79 12.4a10.34 10.34 0 00-1 .76"/><path class="prefix__r" d="M92.68 145.41L69.89 133c.17-.12.35-.23.53-.34a9.51 9.51 0 01.9-.48l22.79 12.39a6.83 6.83 0 00-.89.49l-.54.34"/><path class="prefix__s" d="M94.11 144.58l-22.79-12.39a17.14 17.14 0 014.87-1.33L99 143.26a17.58 17.58 0 00-4.88 1.32"/></g></g><g class="prefix__b"><g class="prefix__b" clip-path="url(#prefix__v)"><path class="prefix__o" d="M75.45 172.72l-22.79-12.4a12.12 12.12 0 003.41-1l22.8 12.39a11.87 11.87 0 01-3.42 1"/><path class="prefix__g" d="M78.87 171.73l-22.8-12.39a9.73 9.73 0 001.34-.77L80.2 171a9.16 9.16 0 01-1.33.76"/><path class="prefix__h" d="M80.2 171l-22.79-12.4a11 11 0 00.76-.59l.14-.13 22.79 12.4-.14.13a9 9 0 01-.76.59"/><path class="prefix__i" d="M81.1 170.25l-22.79-12.4a9.55 9.55 0 00.9-.9L82 169.35a9.55 9.55 0 01-.9.9"/><path class="prefix__j" d="M82 169.35L59.21 157a8.6 8.6 0 00.67-.85l22.79 12.4a8.6 8.6 0 01-.67.85"/><path class="prefix__k" d="M82.67 168.5l-22.79-12.4a9 9 0 00.54-.88l22.8 12.4c-.17.3-.35.59-.55.88"/><path class="prefix__l" d="M83.22 167.62l-22.8-12.4a7.51 7.51 0 00.47-1l22.8 12.4a9.72 9.72 0 01-.47 1"/><path class="prefix__m" d="M83.69 166.58l-22.8-12.4c.06-.14.1-.29.15-.44a24.4 24.4 0 00.72-6.68l22.8 12.4a24.33 24.33 0 01-.73 6.68c0 .15-.09.3-.14.44"/></g></g><g class="prefix__b"><g class="prefix__b" clip-path="url(#prefix__w)"><path class="prefix__q" d="M73.81 166.78L51 154.38l22.8 12.4"/><path class="prefix__r" d="M73.85 166.8l-22.8-12.4a.85.85 0 00.24.09l22.79 12.4a.79.79 0 01-.23-.09"/><path class="prefix__s" d="M74.08 166.89l-22.79-12.4a2.14 2.14 0 00.85 0 2.77 2.77 0 00.74-.21l22.8 12.4a3 3 0 01-.75.21 2.15 2.15 0 01-.85 0"/><path class="prefix__r" d="M75.68 166.7l-22.8-12.4.32-.18L76 166.51l-.31.19"/><path class="prefix__q" d="M76 166.51l-22.8-12.39a1.81 1.81 0 00.21-.18l22.8 12.4a1.84 1.84 0 01-.22.17"/><path class="prefix__t" d="M76.21 166.34l-22.8-12.4a1.62 1.62 0 00.19-.18l22.79 12.4-.18.18"/><path class="prefix__u" d="M76.39 166.16l-22.79-12.4.17-.22 22.79 12.4a1.84 1.84 0 01-.17.22"/><path class="prefix__v" d="M76.56 165.94l-22.79-12.4.16-.26 22.79 12.4a2.26 2.26 0 01-.16.26"/><path class="prefix__w" d="M76.72 165.68l-22.79-12.4a2.2 2.2 0 00.18-.41l22.79 12.4a2.2 2.2 0 01-.18.41"/><path class="prefix__x" d="M76.9 165.27l-22.79-12.4a8.82 8.82 0 00.39-3l22.8 12.4a9.05 9.05 0 01-.4 3"/></g></g><g class="prefix__b"><g class="prefix__b" clip-path="url(#prefix__x)"><path class="prefix__m" d="M73.81 166.78L51 154.38h-.06l22.8 12.4h.06"/></g></g><path class="prefix__ax" d="M84.56 159.46l-22.8-12.4.03-13.74 22.79 12.4-.02 13.74z"/><g class="prefix__b"><g class="prefix__b" clip-path="url(#prefix__y)"><path class="prefix__h" d="M69.23 172.12l-22.79-12.4.21.11 22.8 12.4-.22-.11"/><path class="prefix__g" d="M69.45 172.23l-22.8-12.4a4.61 4.61 0 00.51.22 3.87 3.87 0 00.63.2l22.79 12.4a4.21 4.21 0 01-.63-.2l-.5-.22"/><path class="prefix__o" d="M70.58 172.65l-22.79-12.4a12.68 12.68 0 004.87.07l22.79 12.4a12.69 12.69 0 01-4.87-.07"/></g></g><g class="prefix__b"><g class="prefix__b" clip-path="url(#prefix__z)"><path class="prefix__m" d="M73.75 166.75L51 154.35a2.28 2.28 0 01-.85-1.19 8.41 8.41 0 01-.27-2.45l22.8 12.4a8.4 8.4 0 00.26 2.44 2.28 2.28 0 00.86 1.2"/></g></g><path fill="#7a153f" d="M77.3 162.32l-22.8-12.4.03-15.58 22.8 12.4-.03 15.58z"/><path fill="#a81e57" d="M77.33 146.74l-22.8-12.4 7.26-1.02 22.79 12.4-7.25 1.02z"/><g class="prefix__b"><g class="prefix__b" clip-path="url(#prefix__aa)"><path class="prefix__x" d="M69.23 172.12l-22.79-12.4a5.88 5.88 0 01-2.29-2.27 10.88 10.88 0 01-1.24-4.75l22.79 12.4a11.06 11.06 0 001.24 4.75 5.94 5.94 0 002.29 2.27"/></g></g><path class="prefix__as" d="M84.58 145.72v13.74a24.33 24.33 0 01-.73 6.68 9.14 9.14 0 01-2.85 4.24 10.5 10.5 0 01-5.51 2.34 11.3 11.3 0 01-5.5-.27 5.8 5.8 0 01-3-2.6 11.06 11.06 0 01-1.24-4.75l6.93-2a8.4 8.4 0 00.26 2.44 2.28 2.28 0 00.86 1.2 1.72 1.72 0 001.18.16 2.29 2.29 0 001.79-1.23 7.52 7.52 0 00.58-3.36v-15.58z"/><path class="prefix__aq" d="M65.7 165.1l-22.79-12.4 6.92-1.99 22.8 12.4-6.93 1.99z"/><path class="prefix__ax" d="M65.48 174.12l-22.79-12.4.22-122.96 22.8 12.4-.23 122.96z"/><path class="prefix__aa" d="M65.71 51.16L109.59 45l-.06 28.91V123.68l-.07 35.62a6.71 6.71 0 00-.93-3.62 6 6 0 00-3-2.38 26 26 0 00-6.86-1.3 5.28 5.28 0 01-2.44-.59 1.26 1.26 0 01-.52-1 2.12 2.12 0 01.64-1.5 3.23 3.23 0 011.91-.84 3.15 3.15 0 012.4.44 3.45 3.45 0 011.14 2.32l6.82-1.39c-.29-2.57-1.22-4.36-2.79-5.34s-3.85-1.26-6.84-.84a14.86 14.86 0 00-5.77 1.81 8.54 8.54 0 00-3.16 3.16 7.82 7.82 0 00-1 3.83 5.5 5.5 0 002 4.6c1.35 1.08 3.61 1.79 6.79 2.11a7.83 7.83 0 013.7.95 2 2 0 01.8 1.64 2.83 2.83 0 01-.84 1.95 3.94 3.94 0 01-2.39 1.11 3.25 3.25 0 01-3.2-1.08 5.17 5.17 0 01-.9-2.64l-6.89 1.44a8.68 8.68 0 002.59 6q2.3 2.16 8.28 1.32l-23.54 3.31a10.5 10.5 0 005.54-2.39 9.14 9.14 0 002.87-4.24 24.33 24.33 0 00.73-6.68v-13.74l-7.26 1v15.58a7.52 7.52 0 01-.58 3.36 2.29 2.29 0 01-1.79 1.23 1.72 1.72 0 01-1.18-.16 2.28 2.28 0 01-.86-1.2 8.4 8.4 0 01-.26-2.44l-6.93 2a11.06 11.06 0 001.24 4.75 5.8 5.8 0 003 2.6 11.3 11.3 0 005.5.27l-10 1.4z"/><path class="prefix__ae" d="M65.71 51.16l-22.8-12.4 43.88-6.17 22.8 12.4-43.88 6.17z"/></g></svg>