<svg xmlns="http://www.w3.org/2000/svg" xmlns:xlink="http://www.w3.org/1999/xlink" viewBox="0 0 23.29 22"><defs><style>.a{fill:url(#a);}.b,.d{fill:#242428;}.c{fill:#393e5b;}.d{stroke:#242428;stroke-miterlimit:10;}</style><linearGradient id="a" x1="1" y1="11" x2="22.29" y2="11" gradientUnits="userSpaceOnUse"><stop offset="0" stop-color="#4453e2"/><stop offset="1" stop-color="#727ee9"/></linearGradient></defs><path class="a" d="M7.16,21a1.54,1.54,0,0,1-1.36-.81L1.19,11.74a1.55,1.55,0,0,1,0-1.48L5.8,1.81A1.54,1.54,0,0,1,7.16,1h9a1.54,1.54,0,0,1,1.36.81l4.61,8.45a1.5,1.5,0,0,1,0,1.48l-4.61,8.45a1.54,1.54,0,0,1-1.36.81Z"/><path class="b" d="M16.13,2a.54.54,0,0,1,.48.29l4.61,8.45a.53.53,0,0,1,0,.52l-4.61,8.45a.54.54,0,0,1-.48.29h-9a.54.54,0,0,1-.48-.29L2.07,11.26a.53.53,0,0,1,0-.52L6.68,2.29A.54.54,0,0,1,7.16,2h9m0-2h-9A2.56,2.56,0,0,0,4.92,1.33L.31,9.78a2.57,2.57,0,0,0,0,2.44l4.61,8.45A2.56,2.56,0,0,0,7.16,22h9a2.56,2.56,0,0,0,2.24-1.33L23,12.22a2.57,2.57,0,0,0,0-2.44L18.37,1.33A2.56,2.56,0,0,0,16.13,0Z"/><polygon class="b" points="4.52 9.35 8.97 8.51 7.99 12.26 7.97 12.27 4.52 9.35"/><path class="b" d="M8.31,9.14,7.7,11.39,5.63,9.63l2.68-.49M9,8h-.1l-4.44.81a.52.52,0,0,0-.24.9l3.44,2.92a.54.54,0,0,0,.33.12.51.51,0,0,0,.5-.38l1-3.73A.51.51,0,0,0,9,8Z"/><circle class="c" cx="12.42" cy="11" r="5"/><path class="b" d="M12.42,6.5A4.5,4.5,0,1,1,7.92,11a4.5,4.5,0,0,1,4.5-4.5m0-1a5.5,5.5,0,1,0,5.5,5.5,5.5,5.5,0,0,0-5.5-5.5Z"/><circle class="d" cx="10.65" cy="9" r="0.5"/></svg>